<svg xmlns="http://www.w3.org/2000/svg" viewBox="0 0 100 100" width="512" height="512" fill="none" stroke="url(#cyanGradient)" stroke-linecap="round" stroke-linejoin="round">
  <rect width="100" height="100" rx="20" fill="#050a14" stroke="none"/>
  <defs>
    <linearGradient id="cyanGradient" x1="0%" y1="0%" x2="100%" y2="100%">
      <stop offset="0%" stop-color="#00f2fe" />
      <stop offset="100%" stop-color="#00d2ff" />
    </linearGradient>
  </defs>
  <g transform="translate(5,5) scale(0.9)">
    <path d="M 10 50 C 25 65 40 80 65 85" stroke-width="2" />
    <path d="M 15 65 C 35 85 55 95 85 85" stroke-width="2.5" />
    <path d="M 25 80 C 45 95 65 100 85 95" stroke-width="2" />
    <circle cx="78" cy="62" r="16" stroke-width="2.5"/>
    <path d="M 78 52 L 85 57 L 82 65 L 74 65 L 71 57 Z" stroke-width="2" />
    <path d="M 78 52 L 78 46" stroke-width="2" />
    <path d="M 85 57 L 93 55" stroke-width="2" />
    <path d="M 82 65 L 88 73" stroke-width="2" />
    <path d="M 74 65 L 67 73" stroke-width="2" />
    <path d="M 71 57 L 62 57" stroke-width="2" />
    <path d="M 62 57 C 62 57 65 50 69 47 L 78 46" stroke-width="2"/>
    <path d="M 93 55 C 93 55 94 60 94 62 C 94 67 91 71 88 73" stroke-width="2"/>
    <path d="M 67 73 C 63 69 62 65 62 57" stroke-width="2"/>
    <path d="M 45 55 C 48 55 53 59 58 61 C 62 63 65 64 65 66 C 65 68 62 69 59 70 C 55 71 50 72 45 69 C 42 67 41 63 41 59 Z" stroke-width="2"/>
    <path d="M 47 70 L 48 73 L 50 72 Z" fill="url(#cyanGradient)" stroke-width="1.5"/>
    <path d="M 53 71 L 54 74 L 56 73 Z" fill="url(#cyanGradient)" stroke-width="1.5"/>
    <path d="M 59 70 L 60 73 L 62 72 Z" fill="url(#cyanGradient)" stroke-width="1.5"/>
    <path d="M 48 57 L 50 59 M 51 56 L 53 58 M 54 55 L 56 57" stroke-width="2"/>
    <path d="M 43 59 C 47 62 50 64 53 64" stroke-width="1.5"/>
    <path d="M 31 38 C 36 45 41 51 45 55" stroke-width="2.5"/>
    <path d="M 23 43 C 28 48 35 53 41 59" stroke-width="2.5"/>
    <path d="M 41 59 C 42 57 44 56 45 55" stroke-width="2"/>
    <path d="M 31 38 C 27 39 24 41 23 43" stroke-width="2.5"/>
    <path d="M 30 35 C 26 36 23 38 22 40" stroke-width="2"/>
    <path d="M 31 38 L 30 35 M 23 43 L 22 40" stroke-width="2"/>
    <path d="M 25 23 C 33 23 35 28 30 35" stroke-width="2.5"/>
    <path d="M 15 28 C 21 31 23 36 22 40" stroke-width="2.5"/>
    <path d="M 15 28 C 18 27 21 25 25 23" stroke-width="2.5"/>
    <path d="M 5 5 C 10 15 15 20 25 23 M 2 15 C 8 20 10 23 15 28" stroke-width="2.5"/>
  </g>
</svg>
